# xmcd
#
# Track frame offsets: 
#        150
#        19321
#        32352
#        46350
#        67541
#        84159
#        100460
#        118212
#        137056
#        156323
#        168380
#        189027
#        207477
#        226579
#        242357
#
# Disc length: 3451 seconds
#
# Revision: 0
# Processed by: cddbd v1.5.2PL0 Copyright (c) Steve Scherf et al.
# Submitted via: ExactAudioCopy v0.95b4
#
DISCID=b30d790f
DTITLE=Various Artist - Mississippi Blues
DYEAR=2007
DGENRE=Blues
TTITLE0=The Blues is Alright - Little Milton
TTITLE1=Dust My Broom - Elmore James
TTITLE2=Smokestack Lightning - Howlin' Wolf
TTITLE3=Don't Mess With My Man - Denise LaSalle
TTITLE4=Turn Back the Clock - Tyrone Davis
TTITLE5=The End of the Rainbow - McKinley Mitchell
TTITLE6=The Thrill is Gone - B.B. King
TTITLE7=Got My Mojo Working - Muddy Waters
TTITLE8=The Seventh Son - Willie Dixon
TTITLE9=Crossroad Blues - Robert Johnson
TTITLE10=Red Cross Score - Mississippi Fred McDowell
TTITLE11=I'll Play the Blues For You - Albert King
TTITLE12=One Monkey Don't Stop No Show - Bobby Rush
TTITLE13=Take It Easy Baby - Pinetop Perkins
TTITLE14=Misty Blue - Dorothy Moore
EXTD=
EXTT0=
EXTT1=
EXTT2=
EXTT3=
EXTT4=
EXTT5=
EXTT6=
EXTT7=
EXTT8=
EXTT9=
EXTT10=
EXTT11=
EXTT12=
EXTT13=
EXTT14=
PLAYORDER=
